{
    "asset": {
        "version": "2.0",
        "generator": "Open Asset Import Library (assimp v3.1.193236683)"
    },
    "accessors": [
        {
            "bufferView": 0,
            "byteOffset": 0,
            "componentType": 5126,
            "count": 4846,
            "type": "VEC3",
            "max": [
                0.5028187036514282,
                0.9999998807907105,
                0.30826401710510256
            ],
            "min": [
                -0.5028187036514282,
                -0.9999999403953552,
                -0.30826401710510256
            ]
        },
        {
            "bufferView": 1,
            "byteOffset": 0,
            "componentType": 5126,
            "count": 4846,
            "type": "VEC3",
            "max": [
                1.0,
                1.0,
                1.0
            ],
            "min": [
                -1.0,
                -1.0,
                -1.0
            ]
        },
        {
            "bufferView": 2,
            "byteOffset": 0,
            "componentType": 5126,
            "count": 4846,
            "type": "VEC2",
            "max": [
                0.995913028717041,
                0.995913028717041
            ],
            "min": [
                0.0040870001539587978,
                0.026755988597869874
            ]
        },
        {
            "bufferView": 3,
            "byteOffset": 0,
            "componentType": 5123,
            "count": 19920,
            "type": "SCALAR",
            "max": [
                4845.0
            ],
            "min": [
                0.0
            ]
        }
    ],
    "buffers": [
        {
            "byteLength": 194912,
            "uri": "C:/Users/jeffr/OneDrive/Bureaublad/T_Oillamp_007.bin"
        }
    ],
    "bufferViews": [
        {
            "buffer": 0,
            "byteOffset": 0,
            "byteLength": 58152,
            "target": 34962
        },
        {
            "buffer": 0,
            "byteOffset": 58152,
            "byteLength": 58152,
            "target": 34962
        },
        {
            "buffer": 0,
            "byteOffset": 116304,
            "byteLength": 38768,
            "target": 34962
        },
        {
            "buffer": 0,
            "byteOffset": 155072,
            "byteLength": 39840,
            "target": 34963
        }
    ],
    "materials": [
        {
            "name": "Texture_Base",
            "pbrMetallicRoughness": {
                "baseColorFactor": [
                    0.800000011920929,
                    0.800000011920929,
                    0.800000011920929,
                    1.0
                ],
                "metallicFactor": 0.0,
                "roughnessFactor": 0.5
            }
        }
    ],
    "meshes": [
        {
            "name": "SM_Glass_001_BezierCurve.008",
            "primitives": [
                {
                    "mode": 4,
                    "material": 0,
                    "indices": 3,
                    "attributes": {
                        "POSITION": 0,
                        "NORMAL": 1,
                        "TEXCOORD_0": 2
                    }
                }
            ]
        }
    ],
    "nodes": [
        {
            "matrix": [
                0.9098110198974609,
                0.0,
                0.0,
                0.0,
                0.0,
                0.9098110198974609,
                0.0,
                0.0,
                0.0,
                0.0,
                0.9098110198974609,
                0.0,
                0.0,
                0.9094160199165344,
                0.0,
                1.0
            ],
            "children": [
                1
            ]
        },
        {
            "name": "SM_Glass_001_BezierCurve.008",
            "mesh": 0
        }
    ],
    "scenes": [
        {
            "nodes": [
                0
            ]
        }
    ],
    "scene": 0
}