{
    "asset" : {
        "generator" : "Khronos glTF Blender I/O v1.1.46",
        "version" : "2.0"
    },
    "extensionsUsed" : [
        "KHR_lights_punctual"
    ],
    "extensionsRequired" : [
        "KHR_lights_punctual"
    ],
    "extensions" : {
        "KHR_lights_punctual" : {
            "lights" : [
                {
                    "color" : [
                        1,
                        1,
                        1
                    ],
                    "intensity" : 100,
                    "type" : "point",
                    "name" : "Light"
                },
                {
                    "color" : [
                        1,
                        1,
                        1
                    ],
                    "intensity" : 25,
                    "type" : "point",
                    "name" : "Light.001"
                }
            ]
        }
    },
    "scene" : 0,
    "scenes" : [
        {
            "name" : "Scene",
            "nodes" : [
                1,
                3,
                4
            ]
        }
    ],
    "nodes" : [
        {
            "extensions" : {
                "KHR_lights_punctual" : {
                    "light" : 0
                }
            },
            "name" : "Light_Orientation",
            "rotation" : [
                -0.7071067690849304,
                0,
                0,
                0.7071067690849304
            ]
        },
        {
            "children" : [
                0
            ],
            "name" : "Light",
            "rotation" : [
                0.16907575726509094,
                0.7558803558349609,
                -0.27217137813568115,
                0.570947527885437
            ],
            "translation" : [
                3.0350799560546875,
                5.220010757446289,
                -0.9715808629989624
            ]
        },
        {
            "extensions" : {
                "KHR_lights_punctual" : {
                    "light" : 1
                }
            },
            "name" : "Light.001_Orientation",
            "rotation" : [
                -0.7071067690849304,
                0,
                0,
                0.7071067690849304
            ]
        },
        {
            "children" : [
                2
            ],
            "name" : "Light.001",
            "rotation" : [
                0.16907575726509094,
                0.7558803558349609,
                -0.27217137813568115,
                0.570947527885437
            ],
            "translation" : [
                -1.8938508033752441,
                5.220010757446289,
                1.560174584388733
            ]
        },
        {
            "mesh" : 0,
            "name" : "SM_Glass_001_BezierCurve.008"
        }
    ],
    "materials" : [
        {
            "alphaCutoff" : 0.2839196026325226,
            "alphaMode" : "MASK",
            "doubleSided" : true,
            "emissiveFactor" : [
                0,
                0,
                0
            ],
            "name" : "Texture_Base",
            "normalTexture" : {
                "index" : 0,
                "scale" : 1.7999999523162842,
                "texCoord" : 0
            },
            "pbrMetallicRoughness" : {
                "baseColorTexture" : {
                    "index" : 1,
                    "texCoord" : 0
                },
                "metallicRoughnessTexture" : {
                    "index" : 2,
                    "texCoord" : 0
                }
            }
        }
    ],
    "meshes" : [
        {
            "name" : "SM_Glass_001_BezierCurve.008",
            "primitives" : [
                {
                    "attributes" : {
                        "POSITION" : 0,
                        "NORMAL" : 1,
                        "TEXCOORD_0" : 2
                    },
                    "indices" : 3,
                    "material" : 0
                }
            ]
        }
    ],
    "textures" : [
        {
            "source" : 0
        },
        {
            "source" : 1
        },
        {
            "source" : 2
        }
    ],
    "images" : [
        {
            "mimeType" : "image/png",
            "name" : "SM_Oillamp_006_Texture_Base_Normal",
            "uri" : "SM_Oillamp_006_Texture_Base_Normal.png"
        },
        {
            "mimeType" : "image/png",
            "name" : "SM_Oillamp_006_Texture_Base_BaseColor",
            "uri" : "SM_Oillamp_006_Texture_Base_BaseColor.png"
        },
        {
            "mimeType" : "image/png",
            "name" : "SM_Oillamp_006_Texture_Base_ORM",
            "uri" : "SM_Oillamp_006_Texture_Base_ORM.png"
        }
    ],
    "accessors" : [
        {
            "bufferView" : 0,
            "componentType" : 5126,
            "count" : 4872,
            "max" : [
                0.45746999979019165,
                1.8192269802093506,
                0.28046202659606934
            ],
            "min" : [
                -0.45746999979019165,
                -0.0003950153768528253,
                -0.28046196699142456
            ],
            "type" : "VEC3"
        },
        {
            "bufferView" : 1,
            "componentType" : 5126,
            "count" : 4872,
            "type" : "VEC3"
        },
        {
            "bufferView" : 2,
            "componentType" : 5126,
            "count" : 4872,
            "type" : "VEC2"
        },
        {
            "bufferView" : 3,
            "componentType" : 5123,
            "count" : 19920,
            "type" : "SCALAR"
        }
    ],
    "bufferViews" : [
        {
            "buffer" : 0,
            "byteLength" : 58464,
            "byteOffset" : 0
        },
        {
            "buffer" : 0,
            "byteLength" : 58464,
            "byteOffset" : 58464
        },
        {
            "buffer" : 0,
            "byteLength" : 38976,
            "byteOffset" : 116928
        },
        {
            "buffer" : 0,
            "byteLength" : 39840,
            "byteOffset" : 155904
        }
    ],
    "buffers" : [
        {
            "byteLength" : 195744,
            "uri" : "T_Oillamp_AR_003.bin"
        }
    ]
}
