{
    "asset" : {
        "generator" : "Khronos glTF Blender I/O v1.1.46",
        "version" : "2.0"
    },
    "scene" : 0,
    "scenes" : [
        {
            "name" : "Scene",
            "nodes" : [
                0,
                1,
                2,
                3,
                4
            ]
        }
    ],
    "nodes" : [
        {
            "name" : "Light",
            "rotation" : [
                0.16907575726509094,
                0.7558803558349609,
                -0.27217137813568115,
                0.570947527885437
            ],
            "translation" : [
                0.5180473327636719,
                7.42014217376709,
                -0.06750166416168213
            ]
        },
        {
            "name" : "Light.001",
            "rotation" : [
                0.16907575726509094,
                0.7558803558349609,
                -0.27217137813568115,
                0.570947527885437
            ],
            "translation" : [
                2.7202157974243164,
                4.235054016113281,
                -3.7600059509277344
            ]
        },
        {
            "mesh" : 0,
            "name" : "Cylinder",
            "rotation" : [
                0,
                -0.19700494408607483,
                0,
                0.9804024696350098
            ],
            "scale" : [
                0.05969715118408203,
                2,
                0.05969715118408203
            ],
            "translation" : [
                0,
                1.9987720251083374,
                0
            ]
        },
        {
            "mesh" : 1,
            "name" : "Plane",
            "translation" : [
                0,
                4.026993751525879,
                0
            ]
        },
        {
            "mesh" : 2,
            "name" : "Plane.001",
            "rotation" : [
                0,
                -1,
                0,
                7.549790126404332e-08
            ],
            "translation" : [
                0,
                4.026993751525879,
                0
            ]
        }
    ],
    "materials" : [
        {
            "doubleSided" : true,
            "emissiveFactor" : [
                0,
                0,
                0
            ],
            "name" : "Material.001",
            "pbrMetallicRoughness" : {
                "baseColorFactor" : [
                    0.183793842792511,
                    0.3084249794483185,
                    0.04397230222821236,
                    1
                ],
                "metallicFactor" : 0,
                "roughnessFactor" : 0.5
            }
        }
    ],
    "meshes" : [
        {
            "name" : "Cylinder",
            "primitives" : [
                {
                    "attributes" : {
                        "POSITION" : 0,
                        "NORMAL" : 1,
                        "TEXCOORD_0" : 2
                    },
                    "indices" : 3,
                    "material" : 0
                }
            ]
        },
        {
            "name" : "Plane",
            "primitives" : [
                {
                    "attributes" : {
                        "POSITION" : 4,
                        "NORMAL" : 5,
                        "TEXCOORD_0" : 6
                    },
                    "indices" : 7,
                    "material" : 0
                }
            ]
        },
        {
            "name" : "Plane",
            "primitives" : [
                {
                    "attributes" : {
                        "POSITION" : 8,
                        "NORMAL" : 9,
                        "TEXCOORD_0" : 10
                    },
                    "indices" : 7,
                    "material" : 0
                }
            ]
        }
    ],
    "accessors" : [
        {
            "bufferView" : 0,
            "componentType" : 5126,
            "count" : 204,
            "max" : [
                0.9464969635009766,
                1.0196815729141235,
                0.9464908838272095
            ],
            "min" : [
                -0.9464843273162842,
                -0.9967477321624756,
                -0.9464907646179199
            ],
            "type" : "VEC3"
        },
        {
            "bufferView" : 1,
            "componentType" : 5126,
            "count" : 204,
            "type" : "VEC3"
        },
        {
            "bufferView" : 2,
            "componentType" : 5126,
            "count" : 204,
            "type" : "VEC2"
        },
        {
            "bufferView" : 3,
            "componentType" : 5123,
            "count" : 720,
            "type" : "SCALAR"
        },
        {
            "bufferView" : 4,
            "componentType" : 5126,
            "count" : 1294,
            "max" : [
                0.01740431785583496,
                0.3612227439880371,
                0.4217591881752014
            ],
            "min" : [
                -1.3787840604782104,
                -0.03801465034484863,
                -0.41847917437553406
            ],
            "type" : "VEC3"
        },
        {
            "bufferView" : 5,
            "componentType" : 5126,
            "count" : 1294,
            "type" : "VEC3"
        },
        {
            "bufferView" : 6,
            "componentType" : 5126,
            "count" : 1294,
            "type" : "VEC2"
        },
        {
            "bufferView" : 7,
            "componentType" : 5123,
            "count" : 7104,
            "type" : "SCALAR"
        },
        {
            "bufferView" : 8,
            "componentType" : 5126,
            "count" : 1294,
            "max" : [
                0.01740431785583496,
                0.3612227439880371,
                0.4217591881752014
            ],
            "min" : [
                -1.3787840604782104,
                -0.03801465034484863,
                -0.41847917437553406
            ],
            "type" : "VEC3"
        },
        {
            "bufferView" : 9,
            "componentType" : 5126,
            "count" : 1294,
            "type" : "VEC3"
        },
        {
            "bufferView" : 10,
            "componentType" : 5126,
            "count" : 1294,
            "type" : "VEC2"
        }
    ],
    "bufferViews" : [
        {
            "buffer" : 0,
            "byteLength" : 2448,
            "byteOffset" : 0
        },
        {
            "buffer" : 0,
            "byteLength" : 2448,
            "byteOffset" : 2448
        },
        {
            "buffer" : 0,
            "byteLength" : 1632,
            "byteOffset" : 4896
        },
        {
            "buffer" : 0,
            "byteLength" : 1440,
            "byteOffset" : 6528
        },
        {
            "buffer" : 0,
            "byteLength" : 15528,
            "byteOffset" : 7968
        },
        {
            "buffer" : 0,
            "byteLength" : 15528,
            "byteOffset" : 23496
        },
        {
            "buffer" : 0,
            "byteLength" : 10352,
            "byteOffset" : 39024
        },
        {
            "buffer" : 0,
            "byteLength" : 14208,
            "byteOffset" : 49376
        },
        {
            "buffer" : 0,
            "byteLength" : 15528,
            "byteOffset" : 63584
        },
        {
            "buffer" : 0,
            "byteLength" : 15528,
            "byteOffset" : 79112
        },
        {
            "buffer" : 0,
            "byteLength" : 10352,
            "byteOffset" : 94640
        }
    ],
    "buffers" : [
        {
            "byteLength" : 104992,
            "uri" : "data:application/octet-stream;base64,"
        }
    ]
}
